<svg width="380" height="356" viewBox="0 0 380 356" fill="none" xmlns="http://www.w3.org/2000/svg">
<path d="M308.241 235.262H215.456C211.678 235.262 208.616 238.123 208.616 241.651V288.657C208.616 292.186 211.678 295.047 215.456 295.047H308.241C312.018 295.047 315.081 292.186 315.081 288.657V241.651C315.081 238.123 312.018 235.262 308.241 235.262Z" fill="white"/>
<path opacity="0.1" d="M308.241 235.262H215.456C211.678 235.262 208.616 238.123 208.616 241.651V288.657C208.616 292.186 211.678 295.047 215.456 295.047H308.241C312.018 295.047 315.081 292.186 315.081 288.657V241.651C315.081 238.123 312.018 235.262 308.241 235.262Z" fill="#367CFF"/>
<path d="M285.755 267.319H277.539C277.039 267.319 276.634 267.698 276.634 268.165V285.176C276.634 285.644 277.039 286.022 277.539 286.022H285.755C286.255 286.022 286.661 285.644 286.661 285.176V268.165C286.661 267.698 286.255 267.319 285.755 267.319Z" fill="white"/>
<path d="M305.553 252.774H297.338C296.837 252.774 296.432 253.153 296.432 253.62V285.178C296.432 285.645 296.837 286.024 297.338 286.024H305.553C306.053 286.024 306.459 285.645 306.459 285.178V253.62C306.459 253.153 306.053 252.774 305.553 252.774Z" fill="white"/>
<path d="M226.36 267.319H218.144C217.644 267.319 217.239 267.698 217.239 268.165V285.176C217.239 285.644 217.644 286.022 218.144 286.022H226.36C226.86 286.022 227.266 285.644 227.266 285.176V268.165C227.266 267.698 226.86 267.319 226.36 267.319Z" fill="white"/>
<path d="M246.159 246.159H237.943C237.443 246.159 237.038 246.538 237.038 247.005V285.177C237.038 285.644 237.443 286.023 237.943 286.023H246.159C246.659 286.023 247.065 285.644 247.065 285.177V247.005C247.065 246.538 246.659 246.159 246.159 246.159Z" fill="white"/>
<path d="M265.956 263.127H257.74C257.24 263.127 256.835 263.506 256.835 263.973V285.177C256.835 285.644 257.24 286.023 257.74 286.023H265.956C266.456 286.023 266.862 285.644 266.862 285.177V263.973C266.862 263.506 266.456 263.127 265.956 263.127Z" fill="white"/>
<path d="M141.248 198.697H23.4872C18.6927 198.697 14.806 202.328 14.806 206.807V266.466C14.806 270.945 18.6927 274.575 23.4872 274.575H141.248C146.043 274.575 149.929 270.945 149.929 266.466V206.807C149.929 202.328 146.043 198.697 141.248 198.697Z" fill="white"/>
<path opacity="0.1" d="M141.248 198.697H23.4872C18.6927 198.697 14.806 202.328 14.806 206.807V266.466C14.806 270.945 18.6927 274.575 23.4872 274.575H141.248C146.043 274.575 149.929 270.945 149.929 266.466V206.807C149.929 202.328 146.043 198.697 141.248 198.697Z" fill="#367CFF"/>
<path d="M112.712 239.383H102.285C101.65 239.383 101.135 239.864 101.135 240.457V262.047C101.135 262.64 101.65 263.121 102.285 263.121H112.712C113.347 263.121 113.861 262.64 113.861 262.047V240.457C113.861 239.864 113.347 239.383 112.712 239.383Z" fill="white"/>
<path d="M137.839 220.921H127.411C126.776 220.921 126.262 221.402 126.262 221.995V262.047C126.262 262.64 126.776 263.121 127.411 263.121H137.839C138.473 263.121 138.988 262.64 138.988 262.047V221.995C138.988 221.402 138.473 220.921 137.839 220.921Z" fill="white"/>
<path d="M37.3278 239.383H26.9004C26.2657 239.383 25.7511 239.864 25.7511 240.457V262.047C25.7511 262.64 26.2657 263.121 26.9004 263.121H37.3278C37.9625 263.121 38.4771 262.64 38.4771 262.047V240.457C38.4771 239.864 37.9625 239.383 37.3278 239.383Z" fill="white"/>
<path d="M62.4562 212.527H52.0288C51.3941 212.527 50.8795 213.008 50.8795 213.601V262.047C50.8795 262.64 51.3941 263.121 52.0288 263.121H62.4562C63.0909 263.121 63.6055 262.64 63.6055 262.047V213.601C63.6055 213.008 63.0909 212.527 62.4562 212.527Z" fill="white"/>
<path d="M87.5836 234.062H77.1563C76.5215 234.062 76.007 234.543 76.007 235.136V262.047C76.007 262.64 76.5215 263.121 77.1563 263.121H87.5836C88.2184 263.121 88.733 262.64 88.733 262.047V235.136C88.733 234.543 88.2184 234.062 87.5836 234.062Z" fill="white"/>
<path d="M364.517 0H229.269C223.763 0 219.299 4.17009 219.299 9.31416V77.8321C219.299 82.9762 223.763 87.1462 229.269 87.1462H364.517C370.023 87.1462 374.487 82.9762 374.487 77.8321V9.31416C374.487 4.17009 370.023 0 364.517 0Z" fill="white"/>
<path opacity="0.1" d="M364.517 0H229.269C223.763 0 219.299 4.17009 219.299 9.31416V77.8321C219.299 82.9762 223.763 87.1462 229.269 87.1462H364.517C370.023 87.1462 374.487 82.9762 374.487 77.8321V9.31416C374.487 4.17009 370.023 0 364.517 0Z" fill="#367CFF"/>
<path d="M331.739 46.7263H319.764C319.035 46.7263 318.444 47.2784 318.444 47.9594V72.7564C318.444 73.4375 319.035 73.9895 319.764 73.9895H331.739C332.468 73.9895 333.059 73.4375 333.059 72.7564V47.9594C333.059 47.2784 332.468 46.7263 331.739 46.7263Z" fill="white"/>
<path d="M360.6 25.5244H348.624C347.895 25.5244 347.304 26.0765 347.304 26.7575V72.7579C347.304 73.4389 347.895 73.991 348.624 73.991H360.6C361.329 73.991 361.92 73.4389 361.92 72.7579V26.7575C361.92 26.0765 361.329 25.5244 360.6 25.5244Z" fill="white"/>
<path d="M245.163 46.7263H233.187C232.458 46.7263 231.867 47.2784 231.867 47.9594V72.7564C231.867 73.4375 232.458 73.9895 233.187 73.9895H245.163C245.892 73.9895 246.483 73.4375 246.483 72.7564V47.9594C246.483 47.2784 245.892 46.7263 245.163 46.7263Z" fill="white"/>
<path d="M274.022 15.8829H262.047C261.318 15.8829 260.727 16.435 260.727 17.116V72.757C260.727 73.438 261.318 73.9901 262.047 73.9901H274.022C274.751 73.9901 275.342 73.438 275.342 72.757V17.116C275.342 16.435 274.751 15.8829 274.022 15.8829Z" fill="white"/>
<path d="M302.882 40.616H290.906C290.177 40.616 289.586 41.1681 289.586 41.8491V72.7569C289.586 73.438 290.177 73.99 290.906 73.99H302.882C303.611 73.99 304.202 73.438 304.202 72.7569V41.8491C304.202 41.1681 303.611 40.616 302.882 40.616Z" fill="white"/>
<path d="M70.8408 71.9288H4.86353C2.17748 71.9288 0 73.963 0 76.4722V109.897C0 112.406 2.17748 114.441 4.86353 114.441H70.8408C73.5268 114.441 75.7043 112.406 75.7043 109.897V76.4722C75.7043 73.963 73.5268 71.9288 70.8408 71.9288Z" fill="white"/>
<path opacity="0.3" d="M70.8408 71.9288H4.86353C2.17748 71.9288 0 73.963 0 76.4722V109.897C0 112.406 2.17748 114.441 4.86353 114.441H70.8408C73.5268 114.441 75.7043 112.406 75.7043 109.897V76.4722C75.7043 73.963 73.5268 71.9288 70.8408 71.9288Z" fill="#367CFF"/>
<path d="M54.8524 94.7231H49.0102C48.6546 94.7231 48.3664 94.9924 48.3664 95.3245V107.421C48.3664 107.754 48.6546 108.023 49.0102 108.023H54.8524C55.208 108.023 55.4962 107.754 55.4962 107.421V95.3245C55.4962 94.9924 55.208 94.7231 54.8524 94.7231Z" fill="white"/>
<path d="M68.9308 84.379H63.0885C62.733 84.379 62.4448 84.6483 62.4448 84.9805V107.421C62.4448 107.753 62.733 108.022 63.0885 108.022H68.9308C69.2863 108.022 69.5746 107.753 69.5746 107.421V84.9805C69.5746 84.6483 69.2863 84.379 68.9308 84.379Z" fill="white"/>
<path d="M12.6184 94.7231H6.77617C6.42062 94.7231 6.13239 94.9924 6.13239 95.3245V107.421C6.13239 107.754 6.42062 108.023 6.77617 108.023H12.6184C12.974 108.023 13.2622 107.754 13.2622 107.421V95.3245C13.2622 94.9924 12.974 94.7231 12.6184 94.7231Z" fill="white"/>
<path d="M26.6968 79.6759H20.8545C20.499 79.6759 20.2108 79.9451 20.2108 80.2773V107.421C20.2108 107.753 20.499 108.022 20.8545 108.022H26.6968C27.0523 108.022 27.3406 107.753 27.3406 107.421V80.2773C27.3406 79.9451 27.0523 79.6759 26.6968 79.6759Z" fill="white"/>
<path d="M40.7751 91.7407H34.9328C34.5773 91.7407 34.2891 92.01 34.2891 92.3421V107.42C34.2891 107.752 34.5773 108.021 34.9328 108.021H40.7751C41.1306 108.021 41.4189 107.752 41.4189 107.42V92.3421C41.4189 92.01 41.1306 91.7407 40.7751 91.7407Z" fill="white"/>
<path d="M62.8997 222.611L329.374 222.611C335.918 222.611 341.223 217.655 341.223 211.542V29.2822C341.223 23.169 335.918 18.2133 329.374 18.2133L62.8997 18.2133C56.3557 18.2133 51.0508 23.169 51.0508 29.2822V211.542C51.0508 217.655 56.3557 222.611 62.8997 222.611Z" fill="white"/>
<path d="M50.6562 211.541V29.2819C50.6599 26.2494 51.951 23.3421 54.2464 21.1978C56.5418 19.0535 59.6539 17.8474 62.9 17.844H329.375C332.621 17.8474 335.733 19.0535 338.028 21.1978C340.324 23.3421 341.615 26.2494 341.618 29.2819V211.541C341.615 214.574 340.324 217.481 338.028 219.626C335.733 221.77 332.621 222.976 329.375 222.979H62.9C59.6539 222.976 56.5418 221.77 54.2464 219.626C51.951 217.481 50.6599 214.574 50.6562 211.541ZM62.9 18.5819C59.8634 18.5852 56.9521 19.7136 54.8048 21.7195C52.6576 23.7254 51.4497 26.4451 51.4462 29.2819V211.541C51.4496 214.378 52.6575 217.098 54.8047 219.104C56.952 221.11 59.8633 222.238 62.9 222.241H329.375C332.411 222.238 335.323 221.11 337.47 219.104C339.617 217.098 340.825 214.378 340.829 211.541V29.2819C340.825 26.4451 339.617 23.7253 337.47 21.7194C335.323 19.7135 332.411 18.5851 329.375 18.5819H62.9Z" fill="#292A2E"/>
<path d="M51.0505 29.2804V40.4183H341.221V29.2804C341.221 26.3447 339.973 23.5293 337.751 21.4535C335.529 19.3776 332.515 18.2114 329.372 18.2114H62.8993C59.7568 18.2114 56.743 19.3776 54.521 21.4535C52.2989 23.5293 51.0505 26.3447 51.0505 29.2804Z" fill="#292A2E"/>
<path d="M325.545 51.004H212.48C209.705 51.004 207.455 53.1058 207.455 55.6984V130.417C207.455 133.009 209.705 135.111 212.48 135.111H325.545C328.32 135.111 330.57 133.009 330.57 130.417V55.6984C330.57 53.1058 328.32 51.004 325.545 51.004Z" fill="white"/>
<path opacity="0.15" d="M325.545 51.004H212.48C209.705 51.004 207.455 53.1058 207.455 55.6984V130.417C207.455 133.009 209.705 135.111 212.48 135.111H325.545C328.32 135.111 330.57 133.009 330.57 130.417V55.6984C330.57 53.1058 328.32 51.004 325.545 51.004Z" fill="#367CFF"/>
<path d="M229.554 61.4998H219.782C219.328 61.4998 218.96 61.8435 218.96 62.2676V123.849C218.96 124.273 219.328 124.616 219.782 124.616H229.554C230.008 124.616 230.376 124.273 230.376 123.849V62.2676C230.376 61.8435 230.008 61.4998 229.554 61.4998Z" fill="#FAFAFA"/>
<path opacity="0.6" d="M218.96 92.4392H230.375V123.849C230.375 124.053 230.288 124.248 230.134 124.392C229.98 124.536 229.771 124.617 229.553 124.617H219.782C219.564 124.617 219.355 124.536 219.201 124.392C219.047 124.248 218.96 124.053 218.96 123.849V92.4392Z" fill="#367CFF"/>
<path d="M251.727 61.4998H241.955C241.501 61.4998 241.133 61.8435 241.133 62.2676V123.849C241.133 124.273 241.501 124.616 241.955 124.616H251.727C252.18 124.616 252.548 124.273 252.548 123.849V62.2676C252.548 61.8435 252.18 61.4998 251.727 61.4998Z" fill="#FAFAFA"/>
<path opacity="0.6" d="M241.133 83.69H252.547V123.847C252.547 124.051 252.461 124.246 252.307 124.39C252.152 124.534 251.943 124.615 251.725 124.615H241.955C241.737 124.615 241.528 124.534 241.374 124.39C241.22 124.246 241.133 124.051 241.133 123.847V83.69Z" fill="#367CFF"/>
<path d="M318.243 61.4998H308.471C308.017 61.4998 307.649 61.8435 307.649 62.2676V123.849C307.649 124.273 308.017 124.616 308.471 124.616H318.243C318.697 124.616 319.065 124.273 319.065 123.849V62.2676C319.065 61.8435 318.697 61.4998 318.243 61.4998Z" fill="#FAFAFA"/>
<path opacity="0.6" d="M307.649 74.8655H319.064V123.849C319.064 124.053 318.977 124.248 318.823 124.392C318.669 124.536 318.46 124.617 318.242 124.617H308.471C308.254 124.617 308.044 124.536 307.89 124.392C307.736 124.248 307.65 124.053 307.65 123.849V74.8655H307.649Z" fill="#367CFF"/>
<path d="M273.898 61.4998H264.127C263.673 61.4998 263.305 61.8435 263.305 62.2676V123.849C263.305 124.273 263.673 124.616 264.127 124.616H273.898C274.352 124.616 274.72 124.273 274.72 123.849V62.2676C274.72 61.8435 274.352 61.4998 273.898 61.4998Z" fill="#FAFAFA"/>
<path opacity="0.6" d="M263.305 106.588H274.719V123.849C274.719 124.053 274.632 124.248 274.478 124.392C274.324 124.536 274.115 124.617 273.897 124.617H264.127C263.909 124.617 263.7 124.536 263.545 124.392C263.391 124.248 263.305 124.053 263.305 123.849V106.588Z" fill="#367CFF"/>
<path d="M296.071 61.4998H286.299C285.846 61.4998 285.478 61.8435 285.478 62.2676V123.849C285.478 124.273 285.846 124.616 286.299 124.616H296.071C296.525 124.616 296.893 124.273 296.893 123.849V62.2676C296.893 61.8435 296.525 61.4998 296.071 61.4998Z" fill="#FAFAFA"/>
<path opacity="0.6" d="M285.476 95.5578H296.891V123.848C296.891 124.051 296.804 124.247 296.65 124.391C296.496 124.535 296.287 124.616 296.069 124.616H286.3C286.192 124.616 286.085 124.596 285.985 124.557C285.885 124.519 285.795 124.462 285.718 124.391C285.642 124.319 285.582 124.235 285.54 124.142C285.499 124.049 285.478 123.949 285.478 123.848V95.5578H285.476Z" fill="#367CFF"/>
<path opacity="0.15" d="M323.378 143.343H213.29C209.317 143.343 206.097 146.352 206.097 150.063V205.751C206.097 209.463 209.317 212.471 213.29 212.471H323.378C327.351 212.471 330.572 209.463 330.572 205.751V150.063C330.572 146.352 327.351 143.343 323.378 143.343Z" fill="#367CFF"/>
<path d="M280.556 160.61C282.033 160.61 283.23 159.492 283.23 158.112C283.23 156.733 282.033 155.614 280.556 155.614C279.079 155.614 277.882 156.733 277.882 158.112C277.882 159.492 279.079 160.61 280.556 160.61Z" fill="#367CFF"/>
<path d="M280.556 173.343C282.033 173.343 283.23 172.225 283.23 170.845C283.23 169.466 282.033 168.348 280.556 168.348C279.079 168.348 277.882 169.466 277.882 170.845C277.882 172.225 279.079 173.343 280.556 173.343Z" fill="#262626"/>
<path d="M280.556 186.078C282.033 186.078 283.23 184.959 283.23 183.58C283.23 182.2 282.033 181.082 280.556 181.082C279.079 181.082 277.882 182.2 277.882 183.58C277.882 184.959 279.079 186.078 280.556 186.078Z" fill="white"/>
<path opacity="0.5" d="M280.556 198.811C282.033 198.811 283.23 197.693 283.23 196.313C283.23 194.933 282.033 193.815 280.556 193.815C279.079 193.815 277.882 194.933 277.882 196.313C277.882 197.693 279.079 198.811 280.556 198.811Z" fill="#367CFF"/>
<path d="M317.663 158.111C317.663 158.485 317.504 158.845 317.22 159.11C316.937 159.375 316.552 159.524 316.151 159.524H290.449C290.091 159.53 289.743 159.421 289.461 159.215C289.179 159.01 288.981 158.72 288.9 158.395C288.856 158.189 288.86 157.977 288.914 157.773C288.968 157.569 289.069 157.38 289.211 157.217C289.354 157.055 289.533 156.924 289.735 156.834C289.938 156.744 290.16 156.697 290.385 156.697H316.151C316.349 156.697 316.546 156.734 316.73 156.805C316.913 156.876 317.08 156.98 317.22 157.111C317.361 157.242 317.472 157.398 317.548 157.57C317.624 157.741 317.663 157.925 317.663 158.111Z" fill="white"/>
<path d="M317.662 170.846C317.662 171.22 317.503 171.58 317.219 171.845C316.935 172.11 316.55 172.259 316.149 172.259H290.463C290.253 172.262 290.045 172.225 289.851 172.152C289.656 172.078 289.479 171.969 289.331 171.83C289.183 171.692 289.065 171.527 288.986 171.345C288.907 171.164 288.868 170.969 288.871 170.773C288.891 170.411 289.059 170.071 289.341 169.821C289.622 169.572 289.995 169.433 290.383 169.433H316.149C316.348 169.433 316.545 169.469 316.728 169.54C316.912 169.611 317.078 169.715 317.219 169.846C317.359 169.978 317.471 170.133 317.547 170.305C317.623 170.476 317.662 170.66 317.662 170.846Z" fill="white"/>
<path d="M317.663 183.579C317.663 183.954 317.504 184.313 317.22 184.578C316.936 184.843 316.552 184.992 316.151 184.992H290.229C289.868 184.992 289.523 184.858 289.268 184.62C289.013 184.382 288.87 184.059 288.87 183.723V183.435C288.87 183.099 289.013 182.776 289.268 182.538C289.523 182.3 289.868 182.166 290.229 182.166H316.151C316.349 182.166 316.546 182.203 316.729 182.274C316.913 182.344 317.08 182.449 317.22 182.58C317.361 182.711 317.472 182.867 317.548 183.038C317.624 183.21 317.663 183.393 317.663 183.579Z" fill="white"/>
<path d="M317.662 196.313C317.662 196.688 317.503 197.048 317.219 197.313C316.936 197.578 316.551 197.727 316.15 197.727H290.454C290.096 197.733 289.746 197.624 289.464 197.419C289.181 197.214 288.982 196.924 288.9 196.599C288.855 196.393 288.859 196.181 288.913 195.977C288.967 195.774 289.068 195.584 289.21 195.421C289.352 195.259 289.531 195.128 289.734 195.038C289.937 194.948 290.158 194.901 290.383 194.901H316.149C316.348 194.901 316.544 194.938 316.728 195.009C316.911 195.079 317.078 195.183 317.219 195.315C317.359 195.446 317.471 195.601 317.547 195.773C317.623 195.944 317.662 196.128 317.662 196.313Z" fill="white"/>
<path d="M230.386 177.213C230.387 180.258 231.398 183.228 233.281 185.713C235.164 188.199 237.825 190.078 240.899 191.091L236.576 200.94C230.631 198.847 225.661 194.872 222.531 189.707C219.401 184.542 218.31 178.516 219.448 172.677C220.586 166.838 223.881 161.557 228.759 157.755C233.636 153.952 239.787 151.868 246.14 151.867V162.499C241.962 162.498 237.956 164.049 235.001 166.808C232.047 169.567 230.387 173.31 230.386 177.213Z" fill="#367CFF"/>
<path d="M273.274 177.213H261.893C261.893 173.31 260.234 169.567 257.279 166.807C254.325 164.047 250.318 162.497 246.14 162.496V151.865C253.337 151.865 260.238 154.536 265.327 159.289C270.415 164.043 273.274 170.49 273.274 177.213Z" fill="#262626"/>
<path d="M273.273 177.213C273.272 182.957 271.185 188.53 267.351 193.02C263.518 197.511 258.166 200.653 252.172 201.932L250.245 191.423C253.588 190.579 256.54 188.73 258.646 186.161C260.751 183.593 261.892 180.448 261.893 177.213H273.273Z" fill="white"/>
<path opacity="0.5" d="M252.174 201.931C246.982 203.03 241.56 202.685 236.577 200.938L240.899 191.091C243.908 192.078 247.165 192.194 250.246 191.424L252.174 201.931Z" fill="#367CFF"/>
<path opacity="0.15" d="M190.301 51.004H68.8003C64.8739 51.004 61.691 53.9775 61.691 57.6454V205.831C61.691 209.499 64.8739 212.472 68.8003 212.472H190.301C194.228 212.472 197.411 209.499 197.411 205.831V57.6454C197.411 53.9775 194.228 51.004 190.301 51.004Z" fill="#367CFF"/>
<path d="M166.27 114.022C166.27 121.39 163.932 128.592 159.55 134.719C155.168 140.845 148.94 145.62 141.654 148.439C134.367 151.259 126.349 151.997 118.614 150.559C110.878 149.122 103.773 145.574 98.1958 140.364C92.6188 135.154 88.8208 128.516 87.2821 121.29C85.7434 114.064 86.5331 106.574 89.5513 99.7665C92.5695 92.9595 97.6807 87.1414 104.238 83.048C110.796 78.9547 118.506 76.7698 126.393 76.7698V114.022H166.27Z" fill="#FAFAFA"/>
<path opacity="0.6" d="M171.16 109.183H131.285V71.9305C141.861 71.9309 152.003 75.8558 159.481 82.8419C166.959 89.828 171.16 99.303 171.16 109.183Z" fill="#367CFF"/>
<path opacity="0.6" d="M85.0432 172.407C86.5199 172.407 87.7171 171.289 87.7171 169.909C87.7171 168.53 86.5199 167.411 85.0432 167.411C83.5665 167.411 82.3693 168.53 82.3693 169.909C82.3693 171.289 83.5665 172.407 85.0432 172.407Z" fill="#367CFF"/>
<path d="M85.0432 185.14C86.5199 185.14 87.7171 184.022 87.7171 182.642C87.7171 181.263 86.5199 180.145 85.0432 180.145C83.5665 180.145 82.3693 181.263 82.3693 182.642C82.3693 184.022 83.5665 185.14 85.0432 185.14Z" fill="#FAFAFA"/>
<path opacity="0.6" d="M176.654 169.91C176.654 170.285 176.494 170.644 176.211 170.909C175.927 171.174 175.542 171.323 175.141 171.323H94.9354C94.5777 171.329 94.2287 171.22 93.9467 171.015C93.6647 170.809 93.4669 170.519 93.3863 170.194C93.3415 169.988 93.3462 169.776 93.4001 169.572C93.4539 169.368 93.5556 169.179 93.6977 169.016C93.8398 168.854 94.0188 168.723 94.2217 168.633C94.4246 168.543 94.6464 168.496 94.871 168.496H175.141C175.34 168.496 175.536 168.533 175.72 168.604C175.904 168.675 176.07 168.779 176.211 168.911C176.351 169.042 176.463 169.198 176.539 169.369C176.615 169.541 176.654 169.724 176.654 169.91Z" fill="#367CFF"/>
<path d="M176.656 182.643C176.656 183.018 176.496 183.377 176.212 183.642C175.929 183.907 175.544 184.056 175.143 184.056H94.9525C94.7428 184.059 94.5345 184.023 94.34 183.949C94.1455 183.875 93.9688 183.766 93.8203 183.628C93.6719 183.489 93.5546 183.324 93.4756 183.143C93.3965 182.961 93.3572 182.767 93.3601 182.571C93.3804 182.209 93.5486 181.868 93.8301 181.618C94.1116 181.369 94.4848 181.23 94.8728 181.23H175.143C175.341 181.23 175.538 181.266 175.722 181.337C175.905 181.408 176.072 181.512 176.212 181.644C176.353 181.775 176.464 181.931 176.54 182.102C176.616 182.274 176.656 182.457 176.656 182.643Z" fill="white"/>
<path d="M50.1028 316.225C50.0601 316.225 50.0179 316.217 49.9785 316.202C49.9391 316.187 49.9033 316.165 49.8733 316.136C49.4155 315.709 48.6702 307.869 46.6619 284.526C45.84 274.974 45.0635 265.952 44.4971 260.469C44.4576 260.078 44.2941 260.032 44.2408 260.017C43.4655 259.799 41.1071 261.536 39.7907 263.057C39.7639 263.088 39.7308 263.114 39.6934 263.133C39.6559 263.152 39.6148 263.164 39.5724 263.168C39.53 263.172 39.4871 263.168 39.4462 263.157C39.4053 263.146 39.3671 263.127 39.334 263.102C39.3008 263.077 39.2732 263.046 39.2529 263.011C39.2325 262.976 39.2197 262.938 39.2152 262.898C39.2107 262.859 39.2146 262.818 39.2267 262.78C39.2388 262.742 39.2588 262.706 39.2856 262.675C40.1545 261.67 42.9939 259.033 44.4276 259.436C44.6432 259.505 44.8292 259.637 44.9582 259.813C45.0871 259.988 45.1522 260.198 45.1436 260.411C45.7104 265.898 46.4865 274.923 47.3092 284.477C48.5296 298.662 49.912 314.732 50.3666 315.745C50.4011 315.79 50.4216 315.844 50.4259 315.899C50.4302 315.955 50.418 316.01 50.3908 316.06C50.3636 316.109 50.3223 316.151 50.2715 316.18C50.2207 316.209 50.1623 316.224 50.1028 316.224V316.225Z" fill="#494949"/>
<path d="M43.6631 270.531C49.0506 266.497 50.8363 260.217 47.6515 256.506C44.4667 252.794 37.5174 253.056 32.1299 257.09C26.7424 261.124 24.9568 267.404 28.1416 271.115C31.3264 274.827 38.2756 274.565 43.6631 270.531Z" fill="#0CBC8B"/>
<path opacity="0.2" d="M43.6631 270.531C49.0506 266.497 50.8363 260.217 47.6515 256.506C44.4667 252.794 37.5174 253.056 32.1299 257.09C26.7424 261.124 24.9568 267.404 28.1416 271.115C31.3264 274.827 38.2756 274.565 43.6631 270.531Z" fill="white"/>
<path d="M29.6514 272.058C29.6206 272.058 29.5905 272.05 29.5645 272.035C29.5385 272.019 29.5178 271.997 29.5047 271.971C29.4916 271.945 29.4867 271.916 29.4906 271.888C29.4945 271.859 29.507 271.832 29.5266 271.81L44.8806 254.513C44.9081 254.482 44.9477 254.462 44.9906 254.459C45.0335 254.455 45.0762 254.467 45.1093 254.493C45.1425 254.519 45.1634 254.556 45.1674 254.596C45.1714 254.636 45.1581 254.676 45.1307 254.707L29.7766 272.004C29.7613 272.021 29.7422 272.035 29.7206 272.044C29.6989 272.054 29.6753 272.058 29.6514 272.058Z" fill="white"/>
<path d="M53.4507 312.517C53.3989 312.517 53.348 312.505 53.302 312.483C53.256 312.461 53.2164 312.428 53.1864 312.389C53.1565 312.35 53.137 312.304 53.1296 312.256C53.1223 312.208 53.1273 312.16 53.1442 312.114L58.9106 296.619C59.0802 296.164 59.3695 295.755 59.7519 295.432C60.1343 295.108 60.5976 294.879 61.0994 294.766C61.6011 294.652 62.1253 294.659 62.6237 294.784C63.1222 294.909 63.579 295.149 63.9523 295.482L67.0014 298.203C67.0618 298.259 67.0963 298.335 67.0974 298.415C67.0985 298.494 67.0662 298.571 67.0074 298.628C66.9486 298.686 66.868 298.719 66.783 298.722C66.6979 298.724 66.6152 298.696 66.5527 298.642L63.5036 295.921C63.209 295.658 62.8483 295.468 62.4548 295.37C62.0613 295.271 61.6475 295.266 61.2514 295.355C60.8553 295.444 60.4895 295.625 60.1876 295.881C59.8857 296.136 59.6574 296.459 59.5236 296.818L53.7572 312.315C53.7347 312.374 53.6932 312.425 53.6383 312.461C53.5834 312.498 53.5178 312.517 53.4507 312.517Z" fill="#494949"/>
<path d="M75.5193 306.782C79.5119 303.83 79.2746 297.336 74.9893 292.279C70.7039 287.221 63.9933 285.514 60.0007 288.467C56.008 291.419 56.2453 297.912 60.5307 302.97C64.816 308.028 71.5266 309.734 75.5193 306.782Z" fill="#0CBC8B"/>
<path d="M47.4825 315.237C47.4095 315.237 47.3386 315.214 47.2813 315.172C47.224 315.13 47.1835 315.071 47.1665 315.005L37.49 277.2C37.424 276.942 37.2832 276.706 37.083 276.518C36.8829 276.33 36.6311 276.198 36.3555 276.135C36.0799 276.072 35.791 276.082 35.5208 276.162C35.2505 276.243 35.0093 276.392 34.8236 276.592L31.8401 279.813C31.8126 279.844 31.7787 279.87 31.7403 279.889C31.702 279.908 31.6599 279.919 31.6167 279.923C31.5735 279.926 31.5299 279.922 31.4887 279.909C31.4474 279.897 31.4092 279.877 31.3764 279.85C31.3436 279.824 31.3168 279.791 31.2976 279.755C31.2784 279.718 31.2672 279.679 31.2647 279.638C31.2621 279.598 31.2683 279.557 31.2828 279.519C31.2973 279.481 31.3199 279.446 31.3492 279.416L34.3327 276.195C34.5966 275.91 34.9394 275.699 35.3234 275.585C35.7074 275.47 36.1178 275.457 36.5094 275.546C36.901 275.635 37.2587 275.824 37.5431 276.091C37.8275 276.358 38.0277 276.692 38.1215 277.059L47.798 314.864C47.808 314.902 47.8096 314.942 47.803 314.982C47.7963 315.021 47.7813 315.059 47.759 315.093C47.7367 315.127 47.7075 315.156 47.673 315.18C47.6385 315.203 47.5994 315.22 47.5579 315.229C47.5332 315.235 47.5079 315.237 47.4825 315.237Z" fill="#494949"/>
<path d="M43.9108 288.213C45.0874 281.858 41.9736 276.048 36.9561 275.237C31.9385 274.427 26.9172 278.922 25.7406 285.278C24.5641 291.634 27.6778 297.444 32.6954 298.254C37.713 299.065 42.7343 294.569 43.9108 288.213Z" fill="#0CBC8B"/>
<path d="M50.1021 316.225C50.0889 316.225 50.0757 316.225 50.0626 316.223C49.9771 316.213 49.8994 316.172 49.8464 316.109C49.7933 316.045 49.7694 315.965 49.7798 315.885L55.9601 269.008C56.0274 268.497 56.2512 268.015 56.6045 267.621C56.9578 267.226 57.4256 266.935 57.9517 266.783C58.4778 266.631 59.0398 266.624 59.5701 266.762C60.1004 266.901 60.5764 267.181 60.9409 267.566L68.0052 275.04C68.0334 275.07 68.0551 275.105 68.069 275.143C68.0828 275.18 68.0886 275.22 68.086 275.26C68.0834 275.3 68.0724 275.339 68.0537 275.374C68.035 275.41 68.0089 275.442 67.977 275.469C67.945 275.495 67.9078 275.515 67.8675 275.528C67.8272 275.541 67.7845 275.546 67.7419 275.544C67.6994 275.542 67.6577 275.531 67.6194 275.514C67.5811 275.496 67.5469 275.472 67.5186 275.442L60.4544 267.968C60.1726 267.67 59.8048 267.454 59.395 267.347C58.9851 267.239 58.5508 267.245 58.1442 267.362C57.7376 267.48 57.376 267.705 57.1029 268.01C56.8298 268.315 56.6568 268.687 56.6047 269.082L50.424 315.959C50.4143 316.032 50.3763 316.1 50.317 316.149C50.2577 316.198 50.1813 316.225 50.1021 316.225Z" fill="#494949"/>
<path d="M75.2507 279.194C77.7154 275.032 74.8155 269.126 68.7735 266.004C62.7316 262.882 55.8356 263.725 53.3709 267.888C50.9062 272.05 53.8061 277.956 59.8481 281.078C65.89 284.2 72.786 283.357 75.2507 279.194Z" fill="#0CBC8B"/>
<path opacity="0.2" d="M75.5193 306.782C79.5119 303.83 79.2746 297.336 74.9893 292.279C70.7039 287.221 63.9933 285.514 60.0007 288.467C56.008 291.419 56.2453 297.912 60.5307 302.97C64.816 308.028 71.5266 309.734 75.5193 306.782Z" fill="white"/>
<path opacity="0.5" d="M43.9108 288.213C45.0874 281.858 41.9736 276.048 36.9561 275.237C31.9385 274.427 26.9172 278.922 25.7406 285.278C24.5641 291.634 27.6778 297.444 32.6954 298.254C37.713 299.065 42.7343 294.569 43.9108 288.213Z" fill="white"/>
<path opacity="0.5" d="M75.2507 279.194C77.7154 275.032 74.8155 269.126 68.7735 266.004C62.7316 262.882 55.8356 263.725 53.3709 267.888C50.9062 272.05 53.8061 277.956 59.8481 281.078C65.89 284.2 72.786 283.357 75.2507 279.194Z" fill="white"/>
<path d="M58.0074 356H42.1972L39.5774 308.745H60.6272L58.0074 356Z" fill="#292A2E"/>
<path opacity="0.3" d="M58.0074 356H42.1972L39.5774 308.745H60.6272L58.0074 356Z" fill="white"/>
<path d="M75.5208 306.933C75.4963 306.934 75.472 306.928 75.4499 306.918C75.4278 306.908 75.4084 306.894 75.3932 306.876L59.8745 288.561C59.8612 288.545 59.8514 288.527 59.8455 288.508C59.8397 288.489 59.8379 288.469 59.8404 288.449C59.8428 288.429 59.8494 288.41 59.8597 288.393C59.8701 288.375 59.884 288.36 59.9007 288.348C59.9174 288.335 59.9366 288.326 59.9571 288.321C59.9776 288.315 59.999 288.314 60.0202 288.316C60.0414 288.318 60.0619 288.324 60.0805 288.334C60.0992 288.344 60.1156 288.357 60.1288 288.372L75.648 306.688C75.6746 306.719 75.6868 306.759 75.6817 306.799C75.6767 306.839 75.6549 306.876 75.6211 306.901C75.5927 306.922 75.5573 306.933 75.5208 306.933Z" fill="white"/>
<path d="M74.2168 280.663C74.1824 280.663 74.149 280.652 74.1212 280.634L54.2626 267.087C54.2447 267.076 54.2295 267.061 54.2178 267.044C54.2061 267.027 54.1982 267.008 54.1945 266.988C54.1909 266.968 54.1915 266.948 54.1965 266.928C54.2014 266.908 54.2106 266.889 54.2233 266.873C54.2361 266.857 54.2523 266.843 54.2709 266.832C54.2895 266.822 54.3101 266.815 54.3316 266.812C54.3531 266.809 54.375 266.811 54.396 266.816C54.417 266.821 54.4366 266.83 54.4538 266.842L74.3128 280.389C74.3405 280.407 74.361 280.434 74.3716 280.464C74.3821 280.495 74.382 280.528 74.3714 280.558C74.3607 280.589 74.34 280.615 74.3123 280.634C74.2845 280.653 74.2511 280.663 74.2168 280.663Z" fill="white"/>
<path d="M31.8913 298.055C31.8771 298.055 31.8628 298.054 31.8491 298.05C31.8078 298.04 31.7725 298.015 31.751 297.98C31.7295 297.945 31.7234 297.904 31.7341 297.866L38.0559 275.739C38.0673 275.7 38.0944 275.668 38.1313 275.648C38.1682 275.628 38.2119 275.622 38.2533 275.632C38.2947 275.642 38.33 275.667 38.3516 275.702C38.3731 275.736 38.3791 275.777 38.3683 275.816L32.0477 297.943C32.0386 297.975 32.0183 298.004 31.99 298.024C31.9617 298.044 31.927 298.055 31.8913 298.055Z" fill="white"/>
<path d="M112.868 339.444C112.868 339.444 114.651 348.08 123.305 348.562C131.958 349.045 130.082 355.484 130.082 355.484H97.0101V340.046L112.868 339.444Z" fill="#367CFF"/>
<path d="M94.7684 181.923C94.7684 181.923 97.2416 179.327 97.2199 185.215C97.1381 207.179 95.5516 344.956 95.5516 344.956L117.285 344.786L130.45 181.03L94.7684 181.923Z" fill="#262626"/>
<path d="M149.98 339.444C149.98 339.444 151.763 348.08 160.418 348.561C169.073 349.042 167.196 355.483 167.196 355.483H134.122V340.046L149.98 339.444Z" fill="#367CFF"/>
<path d="M154.183 183.628C154.183 183.628 156.898 258.696 156.616 262.365L154.063 344.386L132.689 344.755L129.242 259.397C129.242 259.397 126.983 235.851 120.893 213.987C117.778 202.766 115.902 191.275 115.297 179.696L154.183 183.628Z" fill="#262626"/>
<path d="M125.985 236.851L127.767 211.389C127.767 211.389 129.597 221.974 129.597 231.098C129.597 235.557 128.614 253.214 128.614 253.214L125.985 236.851Z" fill="#0A0A0A"/>
<path d="M94.5304 181.919L94.4608 181.922C94.4608 181.922 94.5118 180.644 94.5304 181.919Z" fill="#333333"/>
<path d="M94.6199 181.919L94.5504 181.923C94.5504 181.923 94.6006 180.644 94.6199 181.919Z" fill="#333333"/>
<path d="M213.712 120.99C213.582 120.748 213.373 120.549 213.117 120.422C212.86 120.296 212.568 120.246 212.28 120.281C212.282 120.257 212.277 120.233 212.264 120.213C212.25 120.196 212.233 120.184 212.212 120.176C212.192 120.168 212.17 120.166 212.148 120.169L213.12 119.518C213.411 119.332 213.621 119.054 213.709 118.735C213.797 118.416 213.759 118.078 213.601 117.784C213.436 117.497 213.162 117.279 212.834 117.17C212.506 117.062 212.146 117.071 211.824 117.197C211.827 117.184 211.817 117.172 211.815 117.16L212.215 116.893C212.488 116.716 212.688 116.457 212.78 116.159C212.872 115.861 212.851 115.543 212.721 115.257C212.635 115.08 212.509 114.923 212.35 114.797C212.191 114.671 212.005 114.579 211.804 114.529C211.603 114.478 211.392 114.47 211.187 114.505C210.983 114.539 210.788 114.616 210.619 114.729L209.698 115.347C209.695 115.341 209.698 115.336 209.694 115.331C209.691 115.326 209.68 115.324 209.675 115.319C209.887 115.097 210.011 114.814 210.028 114.516C210.045 114.219 209.953 113.926 209.768 113.684C209.333 113.03 208.329 113.164 207.733 113.563L202.309 117.062L203.278 115.538C203.473 115.244 203.542 114.893 203.47 114.554C203.399 114.215 203.192 113.914 202.893 113.712C202.734 113.613 202.555 113.545 202.367 113.512C202.18 113.479 201.987 113.483 201.8 113.522C201.614 113.562 201.438 113.636 201.284 113.741C201.129 113.846 201 113.979 200.902 114.133L195.61 122.457C194.988 123.434 194.799 124.598 195.083 125.703C195.366 126.808 196.099 127.766 197.127 128.373C198.318 129.078 199.708 129.434 201.117 129.397C202.527 129.359 203.893 128.929 205.039 128.161L213.229 122.676C213.501 122.487 213.697 122.218 213.785 121.912C213.873 121.606 213.847 121.281 213.712 120.99Z" fill="#E98862"/>
<g opacity="0.25">
<path d="M204.33 118.805C204.35 118.831 204.38 118.848 204.413 118.853C204.446 118.859 204.481 118.852 204.509 118.834L209.662 115.499C209.676 115.49 209.688 115.479 209.697 115.465C209.706 115.452 209.713 115.437 209.716 115.421C209.719 115.406 209.718 115.39 209.715 115.374C209.711 115.358 209.704 115.344 209.695 115.331C209.685 115.317 209.673 115.306 209.658 115.298C209.644 115.289 209.628 115.283 209.611 115.28C209.595 115.278 209.577 115.278 209.561 115.281C209.544 115.285 209.528 115.291 209.514 115.3L204.361 118.634C204.333 118.653 204.313 118.681 204.307 118.712C204.301 118.744 204.309 118.776 204.328 118.803L204.33 118.805Z" fill="#0C0C0C"/>
</g>
<g opacity="0.25">
<path d="M205.841 120.97C205.861 120.995 205.89 121.012 205.924 121.018C205.957 121.023 205.991 121.016 206.019 120.998L211.771 117.277C211.799 117.258 211.818 117.23 211.824 117.198C211.83 117.167 211.823 117.134 211.803 117.108C211.783 117.082 211.753 117.065 211.719 117.059C211.686 117.054 211.651 117.06 211.622 117.077L205.871 120.798C205.843 120.817 205.824 120.845 205.818 120.876C205.812 120.908 205.819 120.941 205.839 120.967L205.841 120.97Z" fill="#0C0C0C"/>
</g>
<g opacity="0.25">
<path d="M207.465 123.321C207.485 123.346 207.514 123.364 207.548 123.369C207.581 123.374 207.615 123.367 207.643 123.349L212.231 120.381C212.259 120.363 212.279 120.334 212.285 120.303C212.291 120.271 212.283 120.239 212.264 120.212C212.244 120.186 212.214 120.168 212.18 120.162C212.147 120.156 212.112 120.163 212.083 120.182L207.495 123.15C207.467 123.168 207.448 123.196 207.442 123.228C207.436 123.259 207.443 123.292 207.463 123.319L207.465 123.321Z" fill="#0C0C0C"/>
</g>
<path d="M192.485 120.561L176.941 145.294L157.973 122.052L142.22 135.319L169.12 167.865L169.297 168.097C170.373 169.475 171.808 170.574 173.465 171.29C175.122 172.007 176.947 172.318 178.769 172.193C180.59 172.068 182.347 171.513 183.875 170.578C185.403 169.644 186.651 168.362 187.501 166.852L209.606 129.456L192.485 120.561Z" fill="#367CFF"/>
<path d="M175.416 148.267C175.382 148.267 175.348 148.259 175.319 148.244C175.289 148.228 175.265 148.206 175.247 148.179C175.229 148.152 175.219 148.121 175.218 148.09C175.217 148.058 175.224 148.027 175.24 147.999L176.764 145.209C176.788 145.165 176.829 145.133 176.879 145.117C176.929 145.102 176.983 145.107 177.029 145.129C177.076 145.151 177.111 145.19 177.127 145.236C177.143 145.283 177.139 145.334 177.115 145.377L175.591 148.167C175.575 148.197 175.55 148.222 175.519 148.24C175.488 148.258 175.452 148.267 175.416 148.267Z" fill="#0C0C0C"/>
<path d="M156.878 145.153L156.404 152.964L156.799 152.985L157.274 145.174L156.878 145.153Z" fill="#0C0C0C"/>
<path d="M106.788 88.6184C106.788 88.6184 106.059 97.3134 103.924 100.448C97.7785 109.471 95.904 119.677 101.879 125.084C107.855 130.491 146.39 130.984 149.461 118.727C152.047 108.41 146.787 107.241 145.609 98.6923C145.076 94.8248 143.579 86.7116 143.579 86.7116" fill="#0A0A0A"/>
<path d="M139.652 116.769C139.586 116.761 138.847 128.204 124.617 127.206C114.766 126.517 111.254 116.753 111.028 116.753C112.09 116.542 113.879 116.236 114.35 116C115.901 115.222 117.821 114.411 118.321 111.597C118.609 109.974 118.12 101.677 118.271 100.036L133.392 103.189C133.181 106.655 131.702 114.69 136.885 116.112C137.748 116.347 138.677 116.563 139.652 116.769Z" fill="#E98862"/>
<path opacity="0.52" d="M133.604 112.828C133.367 112.115 133.214 111.38 133.149 110.636C132.982 108.938 133.015 107.228 133.247 105.536C130.174 105.149 127.279 103.964 124.89 102.116C124.609 103.085 123.065 107.318 123.493 108.238C124.301 109.978 128.099 112.828 133.604 112.828Z" fill="#0C0C0C"/>
<path d="M131.599 109.227C125.631 109.701 117.945 107.39 116.439 99.9568L115.08 93.2494C113.574 85.8158 116.533 79.0508 124.025 77.7263C131.517 76.4017 138.338 81.4377 139.844 88.8712L140.446 91.8407C141.024 94.6928 142.248 108.381 131.599 109.227Z" fill="#E98862"/>
<path d="M138.311 92.1637C138.83 92.1637 139.25 91.7709 139.25 91.2863C139.25 90.8017 138.83 90.4089 138.311 90.4089C137.792 90.4089 137.372 90.8017 137.372 91.2863C137.372 91.7709 137.792 92.1637 138.311 92.1637Z" fill="#0C0C0C"/>
<path d="M128.689 93.3645C129.207 93.3645 129.628 92.9717 129.628 92.4871C129.628 92.0025 129.207 91.6097 128.689 91.6097C128.17 91.6097 127.749 92.0025 127.749 92.4871C127.749 92.9717 128.17 93.3645 128.689 93.3645Z" fill="#0C0C0C"/>
<path opacity="0.52" d="M133.969 98.921L133.984 98.9188C134.287 98.8632 134.587 98.7919 134.882 98.7052C135.323 98.5727 135.9 98.3539 135.825 97.982C135.739 97.5584 133.571 93.208 133.324 92.7136C133.314 92.692 133.299 92.6725 133.28 92.6564C133.261 92.6402 133.24 92.6277 133.216 92.6195C133.192 92.6112 133.167 92.6075 133.141 92.6085C133.116 92.6095 133.091 92.6151 133.068 92.6251C133.045 92.6351 133.024 92.6493 133.007 92.6668C132.99 92.6843 132.977 92.7048 132.968 92.7272C132.96 92.7495 132.956 92.7732 132.957 92.7969C132.958 92.8205 132.965 92.8438 132.975 92.8652C133.9 94.7181 135.389 97.7636 135.446 98.0488C135.397 98.1812 134.665 98.4321 133.912 98.5653C133.863 98.5734 133.819 98.5992 133.789 98.6373C133.76 98.6753 133.748 98.7225 133.755 98.7689C133.763 98.8153 133.789 98.8571 133.829 98.8855C133.869 98.9138 133.919 98.9264 133.969 98.9207V98.921Z" fill="#0C0C0C"/>
<path opacity="0.52" d="M132.86 102.129C134.082 101.981 135.25 101.566 136.269 100.919C136.312 100.893 136.342 100.852 136.352 100.806C136.363 100.759 136.353 100.71 136.325 100.671C136.297 100.631 136.254 100.603 136.204 100.593C136.154 100.583 136.102 100.592 136.059 100.618C133.854 101.96 131.662 102.178 129.721 101.245C129.682 101.225 129.642 101.207 129.601 101.191C129.553 101.175 129.5 101.178 129.453 101.198C129.407 101.218 129.371 101.255 129.354 101.3C129.337 101.344 129.339 101.394 129.361 101.437C129.383 101.48 129.422 101.514 129.47 101.53C129.485 101.536 129.509 101.548 129.545 101.567C130.566 102.058 131.72 102.254 132.86 102.129Z" fill="#0C0C0C"/>
<path d="M109.087 95.5866L115.803 94.4365C120.89 92.5135 122.428 84.2878 122.428 84.2878C122.428 84.2878 128.606 89.9134 143.579 86.7137C143.579 86.7137 140.577 67.2073 118.457 72.8775C111.325 74.7065 106.206 81.4209 106.843 90.3945C107.291 96.685 109.087 95.5866 109.087 95.5866Z" fill="#0A0A0A"/>
<path d="M117.364 102.139C115.087 102.541 112.78 100.592 112.348 98.4651C111.915 96.338 113.525 94.8389 115.802 94.4364L117.264 95.6539L119.32 101.793L117.364 102.139Z" fill="#E98862"/>
<path d="M134.696 89.1573C135.36 88.7564 136.128 88.5301 136.918 88.502C137.306 88.4856 137.696 88.5241 138.072 88.616C138.445 88.7054 138.805 88.8385 139.142 89.0119C139.19 89.0338 139.226 89.0724 139.244 89.1192C139.261 89.166 139.258 89.2174 139.235 89.262C139.212 89.3066 139.171 89.3409 139.121 89.3575C139.071 89.374 139.016 89.3714 138.968 89.3503L138.954 89.344C138.642 89.2008 138.312 89.0949 137.971 89.0285C137.635 88.9612 137.29 88.9418 136.948 88.971C136.268 89.0241 135.616 89.2442 135.057 89.6089L135.039 89.6215C135.007 89.6433 134.971 89.659 134.932 89.6676C134.893 89.6763 134.853 89.6778 134.814 89.672C134.775 89.6662 134.737 89.6532 134.704 89.6339C134.67 89.6145 134.64 89.5891 134.617 89.5591C134.594 89.5291 134.577 89.4951 134.568 89.4591C134.558 89.423 134.557 89.3856 134.563 89.349C134.569 89.3124 134.583 89.2772 134.604 89.2456C134.624 89.214 134.652 89.1865 134.684 89.1647L134.696 89.1573Z" fill="#0C0C0C"/>
<path d="M128.707 90.4747C128.045 90.3231 127.352 90.338 126.698 90.5179C126.367 90.6062 126.053 90.7407 125.765 90.9168C125.473 91.094 125.207 91.3047 124.971 91.544L124.961 91.554C124.924 91.5885 124.874 91.6083 124.822 91.6091C124.77 91.61 124.719 91.5919 124.681 91.5587C124.643 91.5255 124.62 91.4797 124.618 91.431C124.615 91.3824 124.633 91.3346 124.667 91.2979C124.914 91.0222 125.198 90.7769 125.512 90.5677C125.827 90.3548 126.175 90.1875 126.544 90.0715C127.292 89.8314 128.095 89.7835 128.869 89.9327C128.948 89.9485 129.016 89.9928 129.06 90.0558C129.104 90.1188 129.119 90.1955 129.102 90.2689C129.085 90.3423 129.038 90.4064 128.97 90.4471C128.903 90.4879 128.821 90.5019 128.742 90.4862L128.73 90.4832L128.707 90.4747Z" fill="#0C0C0C"/>
<path opacity="0.52" d="M133.119 103.817C133.341 103.793 133.56 103.752 133.773 103.694C133.822 103.681 133.864 103.65 133.889 103.609C133.913 103.567 133.919 103.518 133.905 103.472C133.891 103.426 133.858 103.388 133.814 103.364C133.769 103.341 133.716 103.336 133.667 103.349C132.379 103.695 131.647 103.238 131.617 103.217C131.575 103.19 131.523 103.179 131.472 103.187C131.422 103.196 131.377 103.222 131.348 103.261C131.319 103.3 131.307 103.349 131.316 103.396C131.325 103.443 131.353 103.484 131.395 103.512C131.915 103.796 132.524 103.904 133.119 103.817Z" fill="#0C0C0C"/>
<path d="M115.818 94.357L115.751 94.1832C124.261 91.3297 122.18 83.5286 122.158 83.45L122.349 83.4032C122.371 83.4832 124.5 91.4455 115.818 94.357Z" fill="#0C0C0C"/>
<path opacity="0.1" d="M127.901 99.4377C128.883 99.3389 129.617 98.7132 129.539 98.0401C129.462 97.3671 128.603 96.9015 127.62 97.0003C126.638 97.099 125.905 97.7247 125.982 98.3978C126.06 99.0709 126.919 99.5365 127.901 99.4377Z" fill="#0C0C0C"/>
<path opacity="0.1" d="M138.331 96.8923C138.41 97.5645 139.27 98.0294 140.253 97.932C140.422 97.9147 140.59 97.8811 140.752 97.8317C140.807 97.0317 140.82 96.2621 140.804 95.5489C140.532 95.4823 140.249 95.4638 139.971 95.4943C138.988 95.5913 138.255 96.2171 138.331 96.8923Z" fill="#0C0C0C"/>
<path d="M157.332 141.961C156.883 146.88 154.703 177.57 154.272 183.629H97.251C96.9153 178.164 93.0391 154.268 91.767 143.582C90.5525 133.384 88.1697 128.279 89.9162 125.264C92.7702 120.337 100.569 117.489 105.887 116.817C109.134 116.407 114.018 116.112 114.018 116.112C114.018 116.112 114.431 123.927 124.292 124.362C137.715 124.952 136.818 116.112 136.885 116.112C139.059 116.112 151.482 117.398 154.521 119.081C162.801 123.662 158.283 131.538 157.332 141.961Z" fill="#367CFF"/>
<path d="M194.344 145.397L188.847 170.353C188.736 170.859 188.443 171.315 188.015 171.644C187.588 171.973 187.053 172.156 186.499 172.161L148.652 172.462C148.291 172.464 147.933 172.392 147.606 172.249C147.279 172.106 146.99 171.897 146.761 171.636C146.532 171.376 146.368 171.071 146.281 170.743C146.194 170.416 146.187 170.075 146.26 169.744L151.756 144.787C151.868 144.281 152.162 143.825 152.59 143.496C153.018 143.168 153.553 142.986 154.107 142.982L191.954 142.681C192.315 142.678 192.672 142.751 192.998 142.894C193.325 143.036 193.614 143.246 193.843 143.506C194.072 143.766 194.236 144.071 194.322 144.398C194.409 144.725 194.417 145.066 194.344 145.397Z" fill="#292A2E"/>
<path d="M159.053 163.123C159.073 163.452 158.965 163.776 158.75 164.036C158.534 164.297 158.225 164.476 157.88 164.54L156.714 164.78C156.735 164.786 156.754 164.797 156.769 164.812C156.784 164.827 156.795 164.845 156.801 164.865C156.804 164.888 156.799 164.911 156.786 164.931C157.066 165.005 157.314 165.158 157.497 165.37C157.679 165.581 157.787 165.841 157.804 166.112C157.806 166.428 157.694 166.736 157.485 166.985C157.276 167.234 156.984 167.41 156.655 167.484L146.817 169.525C146.314 169.63 145.8 169.684 145.284 169.683C144.136 169.683 143.005 169.422 141.989 168.923C140.972 168.423 140.101 167.701 139.451 166.817C138.761 165.881 138.489 164.732 138.692 163.612C138.896 162.492 139.559 161.491 140.541 160.821L148.91 155.106C149.094 154.98 149.308 154.897 149.534 154.866L148.764 158.36L148.969 158.316L149.013 158.308L155.431 157.087C156.146 156.939 157.125 157.183 157.252 157.943C157.319 158.234 157.28 158.538 157.139 158.805C156.999 159.072 156.765 159.287 156.477 159.415C156.481 159.419 156.489 159.423 156.489 159.43C156.489 159.437 156.485 159.441 156.485 159.448L157.595 159.22C157.798 159.178 158.009 159.178 158.212 159.221C158.414 159.264 158.604 159.349 158.768 159.469C158.932 159.589 159.065 159.741 159.158 159.915C159.25 160.089 159.301 160.28 159.305 160.474C159.305 160.784 159.19 161.085 158.98 161.325C158.77 161.565 158.477 161.73 158.152 161.791L157.674 161.891C157.67 161.906 157.674 161.92 157.666 161.931C158.014 161.934 158.349 162.057 158.606 162.278C158.862 162.498 159.021 162.799 159.053 163.123Z" fill="#E98862"/>
<g opacity="0.25">
<path d="M150.096 160.66C150.104 160.69 150.124 160.717 150.153 160.734C150.181 160.752 150.216 160.758 150.249 160.751L156.39 159.574C156.406 159.571 156.422 159.565 156.436 159.556C156.45 159.547 156.462 159.536 156.472 159.523C156.481 159.509 156.488 159.494 156.491 159.479C156.494 159.463 156.494 159.447 156.491 159.432C156.487 159.416 156.48 159.401 156.471 159.388C156.461 159.375 156.449 159.364 156.435 159.355C156.421 159.346 156.405 159.34 156.388 159.337C156.371 159.334 156.354 159.334 156.337 159.337L150.197 160.514C150.163 160.52 150.133 160.539 150.114 160.566C150.095 160.592 150.089 160.625 150.096 160.657L150.096 160.66Z" fill="#0C0C0C"/>
</g>
<g opacity="0.25">
<path d="M150.576 163.203C150.583 163.234 150.604 163.26 150.632 163.277C150.661 163.295 150.695 163.301 150.728 163.294L157.582 161.982C157.615 161.975 157.645 161.956 157.664 161.929C157.683 161.903 157.689 161.87 157.683 161.838C157.675 161.807 157.654 161.78 157.626 161.763C157.597 161.745 157.563 161.739 157.529 161.744L150.675 163.057C150.659 163.06 150.643 163.066 150.629 163.075C150.615 163.084 150.602 163.096 150.593 163.109C150.584 163.122 150.577 163.137 150.574 163.153C150.571 163.168 150.571 163.184 150.574 163.2L150.576 163.203Z" fill="#0C0C0C"/>
</g>
<g opacity="0.25">
<path d="M151.079 165.961C151.087 165.992 151.107 166.019 151.136 166.036C151.164 166.053 151.199 166.059 151.232 166.052L156.699 165.005C156.715 165.002 156.731 164.996 156.745 164.987C156.759 164.978 156.771 164.966 156.781 164.953C156.79 164.94 156.797 164.925 156.8 164.909C156.803 164.894 156.803 164.878 156.799 164.862C156.796 164.846 156.789 164.832 156.78 164.818C156.77 164.805 156.758 164.794 156.744 164.785C156.73 164.776 156.714 164.77 156.697 164.767C156.68 164.764 156.663 164.765 156.646 164.768L151.18 165.815C151.146 165.821 151.116 165.84 151.098 165.867C151.079 165.894 151.072 165.926 151.079 165.958L151.079 165.961Z" fill="#0C0C0C"/>
</g>
<path d="M146.207 173.162L92.8299 182.174C91.1644 182.343 89.4797 182.149 87.9078 181.608C86.336 181.066 84.9197 180.192 83.7703 179.054C82.6208 177.915 81.7693 176.543 81.2827 175.046C80.796 173.548 80.6873 171.966 80.9653 170.423L88.4355 128.93C88.6708 127.617 89.1807 126.361 89.936 125.232C90.6914 124.104 91.6774 123.125 92.8376 122.353C93.9979 121.581 95.3097 121.029 96.6982 120.731C98.0866 120.432 99.5243 120.392 100.929 120.613C102.334 120.834 103.679 121.311 104.886 122.018C106.094 122.724 107.14 123.646 107.966 124.731C108.792 125.815 109.381 127.041 109.699 128.338C110.018 129.636 110.06 130.979 109.822 132.291L104.727 160.855L143.86 156.263L146.207 173.162Z" fill="#367CFF"/>
<path d="M92.8298 182.356C92.7805 182.356 92.7331 182.339 92.6967 182.308C92.6604 182.277 92.6379 182.234 92.6335 182.188C92.6292 182.142 92.6433 182.097 92.6732 182.06C92.7031 182.023 92.7466 181.999 92.795 181.99L145.987 173.011L143.69 156.468L104.752 161.036C104.722 161.04 104.691 161.037 104.661 161.027C104.632 161.017 104.606 161.002 104.585 160.981C104.564 160.96 104.548 160.935 104.539 160.907C104.53 160.88 104.527 160.851 104.532 160.823L107.771 142.567C107.775 142.543 107.784 142.52 107.798 142.499C107.811 142.478 107.829 142.461 107.851 142.446C107.872 142.432 107.896 142.422 107.921 142.417C107.946 142.412 107.973 142.411 107.998 142.415C108.024 142.419 108.048 142.428 108.07 142.441C108.092 142.453 108.112 142.47 108.127 142.49C108.142 142.51 108.153 142.532 108.158 142.555C108.164 142.579 108.165 142.603 108.161 142.627L104.965 160.639L143.835 156.078C143.887 156.072 143.939 156.086 143.981 156.116C144.022 156.145 144.049 156.189 144.056 156.238L146.403 173.136C146.409 173.183 146.396 173.231 146.366 173.269C146.336 173.307 146.292 173.333 146.242 173.342L92.8654 182.354C92.8536 182.355 92.8417 182.356 92.8298 182.356Z" fill="#0C0C0C"/>
<path d="M104.697 160.672L101.263 161.186L101.326 161.55L104.759 161.037L104.697 160.672Z" fill="#0C0C0C"/>
<path d="M370.818 204.132H254.007C249.155 204.132 245.222 207.806 245.222 212.339V249.702C245.222 254.235 249.155 257.909 254.007 257.909H370.818C375.67 257.909 379.604 254.235 379.604 249.702V212.339C379.604 207.806 375.67 204.132 370.818 204.132Z" fill="white"/>
<path opacity="0.4" d="M370.818 204.132H254.007C249.155 204.132 245.222 207.806 245.222 212.339V249.702C245.222 254.235 249.155 257.909 254.007 257.909H370.818C375.67 257.909 379.604 254.235 379.604 249.702V212.339C379.604 207.806 375.67 204.132 370.818 204.132Z" fill="#367CFF"/>
<path d="M370.818 258.277H254.007C251.573 258.274 249.24 257.37 247.519 255.762C245.798 254.154 244.829 251.974 244.827 249.7V212.341C244.829 210.067 245.798 207.887 247.519 206.279C249.24 204.671 251.573 203.767 254.007 203.764H370.818C373.252 203.767 375.585 204.671 377.306 206.279C379.028 207.887 379.996 210.067 379.999 212.341V249.702C379.995 251.975 379.027 254.155 377.306 255.762C375.585 257.37 373.252 258.274 370.818 258.277ZM254.007 204.501C251.782 204.503 249.649 205.33 248.076 206.8C246.503 208.269 245.619 210.262 245.617 212.341V249.702C245.62 251.78 246.504 253.772 248.077 255.241C249.65 256.71 251.783 257.536 254.007 257.539H370.818C373.043 257.536 375.175 256.71 376.748 255.24C378.321 253.771 379.206 251.779 379.209 249.7V212.341C379.206 210.262 378.321 208.27 376.748 206.801C375.175 205.331 373.043 204.505 370.818 204.502L254.007 204.501Z" fill="#292A2E"/>
<path d="M257.27 246.451C257.164 246.451 257.059 246.424 256.968 246.374C256.876 246.323 256.801 246.25 256.75 246.163C256.699 246.076 256.674 245.977 256.678 245.878C256.682 245.779 256.714 245.682 256.772 245.599C256.9 245.414 269.81 226.974 290.325 226.974C301.045 226.974 307.541 230.838 313.822 234.574C319.637 238.034 325.129 241.301 333.627 241.301C351.003 241.301 365 217.728 365.139 217.49C365.215 217.361 365.342 217.265 365.492 217.224C365.643 217.183 365.805 217.199 365.943 217.269C366.081 217.34 366.184 217.458 366.228 217.599C366.272 217.74 366.254 217.892 366.179 218.021C365.597 219.017 351.699 242.409 333.627 242.409C324.784 242.409 319.15 239.057 313.186 235.51C307.047 231.857 300.7 228.081 290.325 228.081C270.465 228.081 257.894 246.016 257.769 246.197C257.715 246.275 257.641 246.339 257.554 246.384C257.467 246.428 257.369 246.451 257.27 246.451Z" fill="white"/>
<path d="M365.825 219.922C367.106 219.922 368.144 218.952 368.144 217.756C368.144 216.56 367.106 215.59 365.825 215.59C364.545 215.59 363.507 216.56 363.507 217.756C363.507 218.952 364.545 219.922 365.825 219.922Z" fill="white"/>
</svg>
